<svg xmlns="http://www.w3.org/2000/svg" version="1.1" xmlns:xlink="http://www.w3.org/1999/xlink" xmlns:svgjs="http://svgjs.dev/svgjs" width="2000" height="393" viewBox="0 0 2000 393"><g transform="matrix(1,0,0,1,-1.2121212121212466,0.40464237119115865)"><svg viewBox="0 0 396 78" data-background-color="#ffbe79" preserveAspectRatio="xMidYMid meet" height="393" width="2000" xmlns="http://www.w3.org/2000/svg" xmlns:xlink="http://www.w3.org/1999/xlink"><g id="tight-bounds" transform="matrix(1,0,0,1,0.2400000000000091,-0.08031069962572701)"><svg viewBox="0 0 395.52 78.16062139925144" height="78.16062139925144" width="395.52"><g><svg viewBox="0 0 518.2411045517513 102.41213280339633" height="78.16062139925144" width="395.52"><g transform="matrix(1,0,0,1,122.7211045517513,29.699251066430108)"><svg viewBox="0 0 395.52 43.013630670536116" height="43.013630670536116" width="395.52"><g id="textblocktransform"><svg viewBox="0 0 395.52 43.013630670536116" height="43.013630670536116" width="395.52" id="textblock"><g><svg viewBox="0 0 395.52 43.013630670536116" height="43.013630670536116" width="395.52"><g transform="matrix(1,0,0,1,0,0)"><svg width="395.52" viewBox="-0.8500000238418579 -33.650001525878906 327.32000732421875 35.60000228881836" height="43.013630670536116" data-palette-color="#ba3b0a"><path d="M21.85-11.1Q15.3-10 11.4-9.1L11.4-9.1Q10.2-7.2 9.85-6.55L9.85-6.55Q8.8-4.7 7.98-3.48 7.15-2.25 6.2-1.3L6.2-1.3Q5.15-0.25 4.48 0.2 3.8 0.65 2.9 0.65L2.9 0.65Q1.4 0.65 0.28-0.03-0.85-0.7-0.85-1.4L-0.85-1.4Q-0.75-1.5 0.25-3.63 1.25-5.75 3.95-8.95L3.95-8.95Q3.95-9.35 3.7-9.95 3.45-10.55 3.45-10.65L3.45-10.65Q3.45-12.1 8-14.15L8-14.15Q10.55-17.95 13.38-21.65 16.2-25.35 20.3-30.4L20.3-30.4Q21.3-31.65 22.85-32.45 24.4-33.25 25.95-33.25L25.95-33.25Q27.55-33.25 28.35-32.95 29.15-32.65 29.38-32.15 29.6-31.65 29.6-30.75L29.6-30.75Q29.4-29.25 29.35-28.5L29.35-28.5Q28.6-22.45 28.23-18.13 27.85-13.8 27.85-9.5L27.85-9.5Q27.85-5.55 28.2-2.25L28.2-2.25Q28.05-1.05 27.15-0.08 26.25 0.9 25.05 0.9L25.05 0.9Q22.75 0.9 22.03-0.25 21.3-1.4 21.3-4.15L21.3-4.15Q21.3-6.15 21.85-11.1L21.85-11.1ZM15.35-14.85Q16.25-15.05 18.1-15.3L18.1-15.3 22.1-15.9Q22.55-22.85 23.15-25.9L23.15-25.9Q21.2-23.6 15.35-14.85L15.35-14.85ZM39.55-29.7Q39.55-31.25 40.52-32.45 41.5-33.65 43.25-33.65L43.25-33.65Q45.1-33.65 46.47-32.5 47.85-31.35 47.85-29.9L47.85-29.9Q47.85-28.45 46.45-27.4 45.05-26.35 43.2-26.35L43.2-26.35Q41.4-26.35 40.47-27.28 39.55-28.2 39.55-29.7L39.55-29.7ZM44.8-20.85Q42.15-10.05 40.75-4.6L40.75-4.6Q40.55-3.8 40.55-2.85L40.55-2.85 40.6-1.45Q40.6-0.6 40.07-0.25 39.55 0.1 37.85 0.15L37.85 0.15Q36.2 0.15 35.35-0.2 34.5-0.55 34.5-1.7L34.5-1.7Q34.5-2.25 35.77-7.55 37.05-12.85 39.25-21.35L39.25-21.35 38.1-22.85Q37.95-23 37.95-23.2L37.95-23.2Q37.95-23.7 39.05-24.03 40.15-24.35 42.1-24.35L42.1-24.35Q43.8-24.35 44.27-23.38 44.75-22.4 44.8-20.85L44.8-20.85ZM83.94-26.35Q83.69-27.15 82.02-27.78 80.34-28.4 77.64-28.4L77.64-28.4Q74.69-28.4 73.04-26.75 71.39-25.1 71.39-22.6L71.39-22.6Q71.39-21.05 72.52-20.23 73.64-19.4 75.99-18.4L75.99-18.4 77.79-17.65 79.29-16.95Q81.99-15.75 83.57-14.78 85.14-13.8 86.24-12.1 87.34-10.4 87.34-7.75L87.34-7.75Q87.34-4.9 85.47-2.83 83.59-0.75 80.24 0.33 76.89 1.4 72.44 1.4L72.44 1.4Q69.14 1.4 66.27 0.38 63.39-0.65 61.72-2.2 60.04-3.75 60.04-5.25L60.04-5.25Q60.04-6.7 61.29-7.63 62.54-8.55 64.84-8.9L64.84-8.9Q65.09-7.45 66.54-6.3 67.99-5.15 69.92-4.48 71.84-3.8 73.29-3.8L73.29-3.8Q75.94-3.8 78.02-4.85 80.09-5.9 80.09-7.75L80.09-7.75Q80.09-9.3 78.62-10.33 77.14-11.35 74.19-12.55L74.19-12.55 71.54-13.75Q68.29-15.35 66.39-17.35 64.49-19.35 64.49-22.65L64.49-22.65Q64.49-26.3 66.54-28.58 68.59-30.85 71.52-31.85 74.44-32.85 77.24-32.85L77.24-32.85Q81.69-32.85 84.57-31.7 87.44-30.55 88.74-28.8 90.04-27.05 90.04-25.2L90.04-25.2Q90.04-24.15 89.52-22.65 88.99-21.15 87.97-20.05 86.94-18.95 85.49-18.95L85.49-18.95Q82.99-18.95 82.99-21.55L82.99-21.55Q83.09-22.35 83.44-24.18 83.79-26 83.94-26.35L83.94-26.35ZM111.94-0.15Q111.74 0.7 111.04 1.03 110.34 1.35 109.19 1.35L109.19 1.35Q105.74 1.35 105.74-0.2L105.74-0.2 106.04-2.1Q104.64-1.05 102.74 0 100.84 1.05 99.59 1.05L99.59 1.05Q92.19 1.05 92.19-3.8L92.19-3.8Q92.19-12.05 97.14-21.7L97.14-21.7Q97.74-22.85 98.42-23.35 99.09-23.85 100.74-23.85L100.74-23.85Q102.49-23.85 103.37-23.38 104.24-22.9 104.24-22.25L104.24-22.25Q104.24-22.1 103.69-21.35L103.69-21.35Q103.14-20.7 102.74-20.05L102.74-20.05Q98.04-12.2 98.04-4.75L98.04-4.75Q98.04-4.1 98.54-3.6 99.04-3.1 99.44-3.1L99.44-3.1Q100.54-3.1 103.17-4.15 105.79-5.2 107.19-6.3L107.19-6.3 108.19-10.35Q109.99-17.6 110.44-19.25L110.44-19.25Q110.99-21.25 111.87-22.53 112.74-23.8 114.64-23.8L114.64-23.8Q117.29-23.8 117.29-22.2L117.29-22.2Q117.29-21.95 117.17-21.58 117.04-21.2 116.99-20.95L116.99-20.95 114.99-12.85Q112.59-3.2 111.94-0.15L111.94-0.15ZM121.59-22.85Q121.44-23 121.44-23.2L121.44-23.2Q121.44-23.7 122.54-24.03 123.64-24.35 125.59-24.35L125.59-24.35Q127.34-24.35 127.94-23.38 128.54-22.4 128.69-20.85L128.69-20.85Q128.59-20.45 128.49-19.75L128.49-19.75 128.24-18.55Q129.69-20.25 132.54-21.88 135.39-23.5 136.99-23.5L136.99-23.5Q139.49-23.5 140.46-22.63 141.44-21.75 141.59-19.3L141.59-19.3Q143.44-21.05 145.84-22.28 148.24-23.5 150.04-23.5L150.04-23.5Q151.94-23.5 153.54-22.73 155.14-21.95 155.14-20.25L155.14-20.25Q155.14-19.8 155.09-19.55L155.09-19.55Q154.94-18.75 154.51-17.32 154.09-15.9 153.89-15.25L153.89-15.25Q152.64-11.2 151.96-8.43 151.29-5.65 151.14-3L151.14-3 151.84-0.55Q151.24 0.6 150.16 1.28 149.09 1.95 147.04 1.95L147.04 1.95Q145.84 1.95 145.29 1.15 144.74 0.35 144.74-0.85L144.74-0.85Q144.74-1.1 144.79-1.4 144.84-1.7 144.84-1.95L144.84-1.95Q144.94-4.75 145.66-7.63 146.39-10.5 147.54-14.1L147.54-14.1Q148.59-17.25 148.59-17.95L148.59-17.95Q148.59-18.25 148.51-18.57 148.44-18.9 148.34-18.9L148.34-18.9Q147.19-18.9 144.56-17.8 141.94-16.7 141.04-15.6L141.04-15.6Q140.09-12.55 137.89-2.9L137.89-2.9 137.59-1.5Q137.34-0.2 137.11 0.3 136.89 0.8 136.24 1.05 135.59 1.3 134.14 1.3L134.14 1.3Q130.69 1.3 130.69-0.1L130.69-0.1Q131.09-1.2 132.89-8.55L132.89-8.55Q133.99-13.1 135.39-18.6L135.39-18.6Q135.09-18.45 134.29-18.15L134.29-18.15Q131.89-17.2 130.11-16.2 128.34-15.2 127.24-13.85L127.24-13.85 125.94-8.55Q125.64-7.35 125.39-6.33 125.14-5.3 124.94-4.6L124.94-4.6Q124.69-3.75 124.59-2.3L124.59-2.3Q124.49-1.3 124.31-0.85 124.14-0.4 123.46-0.13 122.79 0.15 121.34 0.15L121.34 0.15Q119.69 0.15 118.84-0.2 117.99-0.55 117.99-1.7L117.99-1.7Q117.99-2.25 119.26-7.55 120.54-12.85 122.74-21.35L122.74-21.35 121.59-22.85ZM159.99-22.85Q159.84-23 159.84-23.2L159.84-23.2Q159.84-23.7 160.94-24.03 162.04-24.35 163.99-24.35L163.99-24.35Q165.74-24.35 166.34-23.38 166.94-22.4 167.09-20.85L167.09-20.85Q166.99-20.45 166.89-19.75L166.89-19.75 166.64-18.55Q168.09-20.25 170.94-21.88 173.79-23.5 175.39-23.5L175.39-23.5Q177.89-23.5 178.86-22.63 179.84-21.75 179.99-19.3L179.99-19.3Q181.84-21.05 184.24-22.28 186.64-23.5 188.44-23.5L188.44-23.5Q190.34-23.5 191.94-22.73 193.54-21.95 193.54-20.25L193.54-20.25Q193.54-19.8 193.49-19.55L193.49-19.55Q193.34-18.75 192.91-17.32 192.49-15.9 192.29-15.25L192.29-15.25Q191.04-11.2 190.36-8.43 189.69-5.65 189.54-3L189.54-3 190.24-0.55Q189.64 0.6 188.56 1.28 187.49 1.95 185.44 1.95L185.44 1.95Q184.24 1.95 183.69 1.15 183.14 0.35 183.14-0.85L183.14-0.85Q183.14-1.1 183.19-1.4 183.24-1.7 183.24-1.95L183.24-1.95Q183.34-4.75 184.06-7.63 184.79-10.5 185.94-14.1L185.94-14.1Q186.99-17.25 186.99-17.95L186.99-17.95Q186.99-18.25 186.91-18.57 186.84-18.9 186.74-18.9L186.74-18.9Q185.59-18.9 182.96-17.8 180.34-16.7 179.44-15.6L179.44-15.6Q178.49-12.55 176.29-2.9L176.29-2.9 175.99-1.5Q175.74-0.2 175.51 0.3 175.29 0.8 174.64 1.05 173.99 1.3 172.54 1.3L172.54 1.3Q169.09 1.3 169.09-0.1L169.09-0.1Q169.49-1.2 171.29-8.55L171.29-8.55Q172.39-13.1 173.79-18.6L173.79-18.6Q173.49-18.45 172.69-18.15L172.69-18.15Q170.29-17.2 168.51-16.2 166.74-15.2 165.64-13.85L165.64-13.85 164.34-8.55Q164.04-7.35 163.79-6.33 163.54-5.3 163.34-4.6L163.34-4.6Q163.09-3.75 162.99-2.3L162.99-2.3Q162.89-1.3 162.71-0.85 162.54-0.4 161.86-0.13 161.19 0.15 159.74 0.15L159.74 0.15Q158.09 0.15 157.24-0.2 156.39-0.55 156.39-1.7L156.39-1.7Q156.39-2.25 157.66-7.55 158.94-12.85 161.14-21.35L161.14-21.35 159.99-22.85ZM214.68-2.6Q214.78-1.3 215.03-0.25L215.03-0.25Q214.93 0.05 214.16 0.35 213.38 0.65 212.83 0.65L212.83 0.65Q211.03 0.65 210.26 0.13 209.48-0.4 209.48-1.45L209.48-1.45Q209.48-2.45 209.68-3.45L209.68-3.45Q208.58-1.95 206.46-0.98 204.33 0 203.03 0L203.03 0Q199.68 0 197.46-1.95 195.23-3.9 195.23-8.2L195.23-8.2Q195.23-12.25 197.16-15.83 199.08-19.4 202.48-21.58 205.88-23.75 210.03-23.75L210.03-23.75Q210.83-23.75 212.13-23.33 213.43-22.9 214.76-21.88 216.08-20.85 216.98-19.25L216.98-19.25Q217.38-19.25 217.93-18.85 218.48-18.45 218.48-18.05L218.48-18.05Q218.48-17.6 218.33-17.15L218.33-17.15 214.68-2.6ZM212.43-16.6Q212.13-17.7 211.26-18.45 210.38-19.2 209.68-19.2L209.68-19.2Q207.38-19.2 205.36-17.57 203.33-15.95 202.08-13.55 200.83-11.15 200.83-9L200.83-9Q200.83-6.9 201.33-5.55 201.83-4.2 203.28-4.2L203.28-4.2Q204.53-4.2 206.16-4.95 207.78-5.7 209.06-6.98 210.33-8.25 210.73-9.65L210.73-9.65 212.43-16.6ZM226.48-1.9Q226.43-1.6 226.26-0.73 226.08 0.15 225.41 0.5 224.73 0.85 223.28 0.85L223.28 0.85Q221.63 0.85 220.88 0.5 220.13 0.15 220.13-1L220.13-1 222.53-10.55Q224.53-18.8 225.18-21.05L225.18-21.05 223.93-22.55Q223.78-22.7 223.78-22.9L223.78-22.9Q223.78-23.4 224.88-23.73 225.98-24.05 227.93-24.05L227.93-24.05Q229.68-24.05 230.28-23.08 230.88-22.1 231.03-20.55L231.03-20.55 230.68-19.25Q232.28-21.2 234.41-22.48 236.53-23.75 238.18-23.75L238.18-23.75Q240.33-23.75 241.53-23 242.73-22.25 242.73-21.05L242.73-21.05Q242.73-20 242.01-18.88 241.28-17.75 240.18-16.98 239.08-16.2 238.03-16.1L238.03-16.1Q237.03-16.1 236.68-16.35 236.33-16.6 236.33-17.1L236.33-17.1 236.63-18.75Q232.63-17.65 229.38-13.45L229.38-13.45 226.48-1.9ZM246.93-29.7Q246.93-31.25 247.9-32.45 248.88-33.65 250.63-33.65L250.63-33.65Q252.48-33.65 253.85-32.5 255.23-31.35 255.23-29.9L255.23-29.9Q255.23-28.45 253.83-27.4 252.43-26.35 250.58-26.35L250.58-26.35Q248.78-26.35 247.85-27.28 246.93-28.2 246.93-29.7L246.93-29.7ZM252.18-20.85Q249.53-10.05 248.13-4.6L248.13-4.6Q247.93-3.8 247.93-2.85L247.93-2.85 247.98-1.45Q247.98-0.6 247.45-0.25 246.93 0.1 245.23 0.15L245.23 0.15Q243.58 0.15 242.73-0.2 241.88-0.55 241.88-1.7L241.88-1.7Q241.88-2.25 243.15-7.55 244.43-12.85 246.63-21.35L246.63-21.35 245.48-22.85Q245.33-23 245.33-23.2L245.33-23.2Q245.33-23.7 246.43-24.03 247.53-24.35 249.48-24.35L249.48-24.35Q251.18-24.35 251.65-23.38 252.13-22.4 252.18-20.85L252.18-20.85ZM271.93-0.3Q259.13 1.15 257.33 1.4L257.33 1.4Q255.48 1.6 255.43 1.6L255.43 1.6Q254.53 1.6 253.8 1.35 253.08 1.1 252.98 0.7L252.98 0.7Q252.88 0.45 252.58-0.2 252.28-0.85 252.28-1.3L252.28-1.3Q252.28-1.75 252.53-2L252.53-2Q252.78-2.3 253.6-2.45 254.43-2.6 254.73-2.6L254.73-2.6Q257.13-5.1 261.08-9.45L261.08-9.45Q266.58-15.45 269.43-18.25L269.43-18.25 259.48-17.3Q257.93-17.3 257.93-18.85L257.93-18.85Q257.93-20.1 258.83-21.35L258.83-21.35Q259.08-21.7 262.78-22.15 266.48-22.6 270.85-22.98 275.23-23.35 276.43-23.35L276.43-23.35Q278.33-23.35 278.33-21.15L278.33-21.15Q278.33-20.5 277.88-19.93 277.43-19.35 276.78-19.05L276.78-19.05 275.68-18.1Q272.93-15.3 268.93-10.95L268.93-10.95 262.23-3.85Q270.13-4.85 272.33-4.85L272.33-4.85Q274.23-4.85 274.23-2.65L274.23-2.65Q274.23-1.8 273.5-1.13 272.78-0.45 271.93-0.3L271.93-0.3ZM287.82 1.05Q282.92 1.05 280.67-0.9 278.42-2.85 278.42-6.1L278.42-6.1Q278.42-10.85 280.8-14.9 283.17-18.95 287.15-21.33 291.12-23.7 295.72-23.7L295.72-23.7Q298.52-23.7 300.42-22.13 302.32-20.55 302.32-17.5L302.32-17.5Q302.32-15.75 301.2-14.63 300.07-13.5 297.97-12.63 295.87-11.75 291.17-10.15L291.17-10.15Q286.92-8.75 284.27-7.8L284.27-7.8Q284.07-7.05 284.07-6.25L284.07-6.25Q284.07-4.85 285.25-4.1 286.42-3.35 288.57-3.35L288.57-3.35Q289.92-3.35 291.67-3.9 293.42-4.45 293.87-5.3L293.87-5.3Q295.57-8.4 296.97-8.4L296.97-8.4Q299.02-8.4 299.75-7.63 300.47-6.85 300.52-5.9L300.52-5.9Q299.92-4.3 298.17-2.68 296.42-1.05 293.72 0 291.02 1.05 287.82 1.05L287.82 1.05ZM285.67-12.4Q290.62-14 293.82-15.38 297.02-16.75 297.02-18.1L297.02-18.1Q297.02-18.7 296.37-19.07 295.72-19.45 294.97-19.45L294.97-19.45Q293.47-19.45 291.55-18.3 289.62-17.15 287.97-15.5 286.32-13.85 285.67-12.4L285.67-12.4ZM310.22-1.9Q310.17-1.6 310-0.73 309.82 0.15 309.15 0.5 308.47 0.85 307.02 0.85L307.02 0.85Q305.37 0.85 304.62 0.5 303.87 0.15 303.87-1L303.87-1 306.27-10.55Q308.27-18.8 308.92-21.05L308.92-21.05 307.67-22.55Q307.52-22.7 307.52-22.9L307.52-22.9Q307.52-23.4 308.62-23.73 309.72-24.05 311.67-24.05L311.67-24.05Q313.42-24.05 314.02-23.08 314.62-22.1 314.77-20.55L314.77-20.55 314.42-19.25Q316.02-21.2 318.15-22.48 320.27-23.75 321.92-23.75L321.92-23.75Q324.07-23.75 325.27-23 326.47-22.25 326.47-21.05L326.47-21.05Q326.47-20 325.75-18.88 325.02-17.75 323.92-16.98 322.82-16.2 321.77-16.1L321.77-16.1Q320.77-16.1 320.42-16.35 320.07-16.6 320.07-17.1L320.07-17.1 320.37-18.75Q316.37-17.65 313.12-13.45L313.12-13.45 310.22-1.9Z" opacity="1" transform="matrix(1,0,0,1,0,0)" fill="#ba3b0a" class="wordmark-text-0" data-fill-palette-color="primary" id="text-0"></path></svg></g></svg></g></svg></g></svg></g><g><svg viewBox="0 0 102.41213280339633 102.41213280339633" height="102.41213280339633" width="102.41213280339633"><g><svg></svg></g><g id="icon-0"><svg viewBox="0 0 102.41213280339633 102.41213280339633" height="102.41213280339633" width="102.41213280339633"><g><path d="M0 51.206c0-28.28 22.926-51.206 51.206-51.206 28.28 0 51.206 22.926 51.206 51.206 0 28.28-22.926 51.206-51.206 51.206-28.28 0-51.206-22.926-51.206-51.206zM51.206 98.533c26.138 0 47.327-21.189 47.327-47.327 0-26.138-21.189-47.327-47.327-47.327-26.138 0-47.327 21.189-47.327 47.327 0 26.138 21.189 47.327 47.327 47.327z" data-fill-palette-color="accent" fill="#e8772e" stroke="transparent"></path></g><g transform="matrix(1,0,0,1,21.722140032740835,27.49311202649198)"><svg viewBox="0 0 58.96785273791466 47.425908750412376" height="47.425908750412376" width="58.96785273791466"><g><svg xmlns="http://www.w3.org/2000/svg" xmlns:xlink="http://www.w3.org/1999/xlink" version="1.1" x="0" y="0" viewBox="0 9.78600025177002 100.0003433227539 80.42699432373047" enable-background="new 0 0 100 100" xml:space="preserve" width="58.96785273791466" height="47.425908750412376" class="icon-s-0" data-fill-palette-color="accent" id="s-0"><path d="M49.942 52.994c13.552-0.488 27.103-0.977 40.653-1.465-2.527-4.177-3.159-7.831-7.989-8.461-7.229-0.94-14.458-1.883-21.688-2.826-14.023-1.827-28.05-3.654-42.075-5.48C20.101 36.792 39.724 53.361 49.942 52.994z" fill="#e8772e" data-fill-palette-color="accent"></path><path d="M0 9.786c4.391 7.257 26.615 23.072 32.953 23.886 17.33 2.231 34.657 4.46 51.986 6.688-3.393-5.607-4.18-9.35-10.312-10.959-8.904-2.341-17.812-4.683-26.717-7.023C31.94 18.182 15.97 13.984 0 9.786z" fill="#e8772e" data-fill-palette-color="accent"></path><path d="M63.108 66.207c10.413-2.219 20.826-4.439 31.241-6.66-2.028-3.346-2.034-5.359-5.827-5.189-6.158 0.273-12.314 0.549-18.471 0.822-11.343 0.506-22.686 1.014-34.028 1.518C37.298 58.064 54.94 67.947 63.108 66.207z" fill="#e8772e" data-fill-palette-color="accent"></path><path d="M87.682 90.213c5.725-3.719 7.262-7.721 10.519-13.807 3.651-6.824 1.257-7.844-2.821-14.596-0.417-0.688-5.842 0.232-6.453 0.904-0.745 0.818-0.248 5.455-0.294 6.496C88.315 76.211 87.998 83.213 87.682 90.213z" fill="#e8772e" data-fill-palette-color="accent"></path><path d="M86.35 63.447c-3.795 0.809-8.604 0.191-9.572 4.229-1.373 5.736-2.746 11.475-4.12 17.211C81.904 82.678 86.028 71.582 86.35 63.447z" fill="#e8772e" data-fill-palette-color="accent"></path><path d="M74.666 66.121c-9.148 1.953-8.956 4.611-12.879 13.18C68.007 78.711 73.811 71.941 74.666 66.121z" fill="#e8772e" data-fill-palette-color="accent"></path></svg></g></svg></g></svg></g></svg></g></svg></g><defs></defs></svg><rect width="395.52" height="78.16062139925144" fill="none" stroke="none" visibility="hidden"></rect></g></svg></g></svg>